<svg xmlns="http://www.w3.org/2000/svg" version="1.1" xmlns:xlink="http://www.w3.org/1999/xlink" xmlns:svgjs="http://svgjs.dev/svgjs" width="1440" height="560" preserveAspectRatio="none" viewBox="0 0 1440 560"><g mask="url(&quot;#SvgjsMask1005&quot;)" fill="none"><path d="M1560 560L0 560 L0 344.67Q33.88 306.56, 72 340.44Q117.02 265.46, 192 310.47Q250.03 296.5, 264 354.54Q307.43 277.97, 384 321.4Q431.36 296.75, 456 344.11Q525.78 293.89, 576 363.67Q641.58 309.25, 696 374.82Q736.87 295.69, 816 336.55Q845.28 293.83, 888 323.1Q965.98 281.08, 1008 359.06Q1014.83 293.88, 1080 300.71Q1130.55 231.25, 1200 281.8Q1286.05 247.85, 1320 333.9Q1393.11 287.01, 1440 360.12Q1461.65 261.77, 1560 283.43z" fill="#182f5d"></path><path d="M1512 560L0 560 L0 377.72Q53.74 311.47, 120 365.21Q198.24 323.45, 240 401.69Q263.37 353.06, 312 376.42Q354.42 346.84, 384 389.25Q471.94 357.19, 504 445.13Q546.39 367.52, 624 409.92Q674.98 340.9, 744 391.89Q830.42 358.31, 864 444.74Q868.15 376.89, 936 381.05Q959.47 332.52, 1008 355.99Q1049.15 325.14, 1080 366.3Q1159.01 325.31, 1200 404.32Q1256.57 388.89, 1272 445.46Q1302.08 355.53, 1392 385.61Q1440.07 313.68, 1512 361.75z" fill="#25467d"></path><path d="M1488 560L0 560 L0 434.62Q55.03 417.65, 72 472.68Q126.68 407.36, 192 462.03Q276.71 426.74, 312 511.45Q333.99 461.44, 384 483.43Q398.09 425.52, 456 439.61Q507.85 371.46, 576 423.31Q650.87 378.18, 696 453.04Q740.51 425.56, 768 470.07Q803.13 385.2, 888 420.33Q934.29 394.62, 960 440.91Q1038.04 398.95, 1080 476.98Q1091.41 416.39, 1152 427.81Q1197.48 401.29, 1224 446.77Q1288.74 439.51, 1296 504.25Q1313.87 450.12, 1368 467.98Q1409.58 389.56, 1488 431.13z" fill="#356cb1"></path><path d="M1464 560L0 560 L0 568.9Q2.98 499.88, 72 502.85Q137.31 448.16, 192 513.46Q257.19 506.65, 264 571.85Q318.3 506.15, 384 560.45Q387.91 492.36, 456 496.27Q522.32 442.58, 576 508.9Q643.91 504.81, 648 572.72Q671.07 523.79, 720 546.86Q752.19 459.05, 840 491.23Q886.31 465.55, 912 511.86Q1002.35 482.21, 1032 572.56Q1054.45 475.01, 1152 497.46Q1229.63 455.09, 1272 532.71Q1297.55 486.26, 1344 511.82Q1394.16 441.99, 1464 492.15z" fill="rgba(16, 33, 89, 1)"></path></g><defs><mask id="SvgjsMask1005"><rect width="1440" height="560" fill="#ffffff"></rect></mask></defs></svg>