<svg xmlns="http://www.w3.org/2000/svg" version="1.1" xmlns:xlink="http://www.w3.org/1999/xlink" xmlns:svgjs="http://svgjs.dev/svgjs" width="1440" height="560" preserveAspectRatio="none" viewBox="0 0 1440 560"><g mask="url(&quot;#SvgjsMask1513&quot;)" fill="none"><path d="M1488 560L0 560 L0 345.02Q61.11 286.13, 120 347.24Q152.02 259.26, 240 291.29Q313.73 245.02, 360 318.75Q413.21 299.96, 432 353.16Q456.47 305.63, 504 330.11Q531.25 285.36, 576 312.6Q632.42 297.02, 648 353.45Q671.48 256.92, 768 280.4Q815.55 255.95, 840 303.51Q920.83 264.34, 960 345.17Q965.91 279.08, 1032 284.98Q1066.1 247.08, 1104 281.18Q1148.3 253.48, 1176 297.78Q1270.97 272.75, 1296 367.72Q1342.74 294.46, 1416 341.19Q1433.03 286.22, 1488 303.25z" fill="rgba(255, 213, 103, 1)"></path><path d="M1512 560L0 560 L0 384.78Q87.42 352.2, 120 439.62Q139.91 339.53, 240 359.44Q285.72 333.16, 312 378.89Q391.85 338.74, 432 418.59Q438.02 352.61, 504 358.63Q570.9 305.53, 624 372.44Q701.9 330.34, 744 408.24Q792.98 337.22, 864 386.2Q927.6 377.79, 936 441.39Q959.02 392.41, 1008 415.43Q1022.13 357.56, 1080 371.7Q1106.79 326.49, 1152 353.27Q1234.43 315.7, 1272 398.14Q1338.7 344.85, 1392 411.55Q1438.3 337.85, 1512 384.15z" fill="rgba(255, 151, 0, 1)"></path><path d="M1536 560L0 560 L0 447.87Q74.92 402.79, 120 477.71Q190.32 428.03, 240 498.35Q248.23 434.58, 312 442.81Q353.17 411.98, 384 453.15Q455.13 404.28, 504 475.42Q581.25 432.68, 624 509.93Q678.98 444.91, 744 499.89Q770.55 454.44, 816 480.98Q853.39 398.37, 936 435.76Q1010.81 390.57, 1056 465.38Q1125.99 415.38, 1176 485.37Q1217.42 406.8, 1296 448.22Q1343.91 376.13, 1416 424.04Q1513.54 401.58, 1536 499.11z" fill="rgba(255, 120, 0, 1)"></path><path d="M1488 560L0 560 L0 532.95Q38.87 499.83, 72 538.7Q109.72 456.42, 192 494.15Q239.63 469.77, 264 517.4Q320.28 501.68, 336 557.97Q364.21 466.18, 456 494.39Q504.96 471.35, 528 520.31Q600.33 472.64, 648 544.97Q723.5 500.47, 768 575.96Q778.56 514.52, 840 525.07Q889.65 454.72, 960 504.37Q1019.47 491.84, 1032 551.31Q1081.58 528.89, 1104 578.47Q1107.02 509.5, 1176 512.52Q1227.08 443.6, 1296 494.68Q1376.17 454.86, 1416 535.03Q1471.53 518.56, 1488 574.09z" fill="rgba(255, 253, 0, 1)"></path></g><defs><mask id="SvgjsMask1513"><rect width="1440" height="560" fill="#ffffff"></rect></mask></defs></svg>