<svg xmlns="http://www.w3.org/2000/svg" version="1.1" xmlns:xlink="http://www.w3.org/1999/xlink" xmlns:svgjs="http://svgjs.dev/svgjs" width="1440" height="560" preserveAspectRatio="none" viewBox="0 0 1440 560"><g mask="url(&quot;#SvgjsMask1537&quot;)" fill="none"><path d="M1488 560L0 560 L0 314.85Q58.56 301.42, 72 359.98Q98.33 266.31, 192 292.65Q234.51 263.16, 264 305.67Q340.76 262.44, 384 339.2Q393.4 276.6, 456 285.99Q530.2 240.19, 576 314.4Q604.13 270.53, 648 298.67Q705.72 284.39, 720 342.12Q768.09 270.21, 840 318.3Q895.42 301.72, 912 357.14Q960.92 286.06, 1032 334.99Q1087.02 318.01, 1104 373.04Q1132.89 329.93, 1176 358.82Q1206.57 269.38, 1296 299.95Q1369.69 253.64, 1416 327.34Q1473.69 313.03, 1488 370.72z" fill="rgba(69, 0, 130, 1)"></path><path d="M1464 560L0 560 L0 422.61Q48.7 351.31, 120 400.01Q203.91 363.92, 240 447.84Q268.09 355.93, 360 384.02Q441.88 345.9, 480 427.78Q503.65 331.43, 600 355.09Q676.48 311.56, 720 388.04Q784.26 380.31, 792 444.57Q806.51 387.08, 864 401.59Q877.27 342.87, 936 356.14Q978.75 326.89, 1008 369.65Q1068.18 357.83, 1080 418.02Q1134.5 352.52, 1200 407.03Q1226.95 361.98, 1272 388.93Q1323.49 320.42, 1392 371.91Q1443.09 351, 1464 402.09z" fill="rgba(156, 112, 255, 1)"></path><path d="M1512 560L0 560 L0 458.49Q46.37 432.86, 72 479.23Q112.81 400.05, 192 440.86Q259.28 388.14, 312 455.43Q357.49 380.92, 432 426.41Q513.43 387.85, 552 469.28Q625.48 422.75, 672 496.23Q710.01 414.24, 792 452.25Q818.58 406.83, 864 433.41Q961.98 411.39, 984 509.38Q992.57 445.95, 1056 454.52Q1081.69 408.21, 1128 433.9Q1226.29 412.19, 1248 510.48Q1260.1 450.58, 1320 462.67Q1346.6 417.27, 1392 443.87Q1487.81 419.68, 1512 515.48z" fill="rgba(140, 37, 255, 1)"></path><path d="M1488 560L0 560 L0 528.75Q66.06 474.81, 120 540.86Q140.12 488.98, 192 509.09Q276.92 474, 312 558.92Q359.09 486.01, 432 533.1Q456.51 485.61, 504 510.12Q557.63 443.75, 624 497.39Q683.11 484.5, 696 543.6Q765.23 492.83, 816 562.05Q858.62 484.66, 936 527.28Q1007.13 478.41, 1056 549.55Q1066.36 487.9, 1128 498.26Q1202.19 452.45, 1248 526.64Q1300.04 458.68, 1368 510.72Q1452.17 474.89, 1488 559.07z" fill="rgba(59, 0, 136, 1)"></path></g><defs><mask id="SvgjsMask1537"><rect width="1440" height="560" fill="#ffffff"></rect></mask></defs></svg>