<svg xmlns="http://www.w3.org/2000/svg" version="1.1" xmlns:xlink="http://www.w3.org/1999/xlink" xmlns:svgjs="http://svgjs.dev/svgjs" width="1440" height="560" preserveAspectRatio="none" viewBox="0 0 1440 560"><g mask="url(&quot;#SvgjsMask1549&quot;)" fill="none"><path d="M1512 560L0 560 L0 324.53Q79.62 284.15, 120 363.78Q174.74 298.52, 240 353.26Q267.64 308.9, 312 336.55Q391.83 296.38, 432 376.21Q437.78 309.99, 504 315.76Q570.67 262.44, 624 329.11Q678.74 311.85, 696 366.59Q705.05 303.64, 768 312.69Q822.92 247.61, 888 302.53Q957.25 299.78, 960 369.03Q973.31 310.33, 1032 323.64Q1103.56 275.19, 1152 346.75Q1192.78 267.53, 1272 308.31Q1366.57 282.88, 1392 377.44Q1441.67 307.11, 1512 356.78z" fill="rgba(160, 0, 138, 1)"></path><path d="M1488 560L0 560 L0 394.78Q82.54 357.32, 120 439.86Q163.38 363.24, 240 406.61Q269.56 364.17, 312 393.72Q337.3 347.02, 384 372.33Q441.08 357.41, 456 414.49Q483.73 370.22, 528 397.95Q549.63 347.58, 600 369.21Q685.38 334.6, 720 419.98Q771.01 351, 840 402.01Q868.16 358.17, 912 386.34Q933.12 335.45, 984 356.57Q1049.11 301.67, 1104 366.78Q1177.41 320.19, 1224 393.61Q1299.81 349.42, 1344 425.22Q1355.41 364.63, 1416 376.05Q1446.26 334.31, 1488 364.58z" fill="rgba(255, 99, 225, 1)"></path><path d="M1464 560L0 560 L0 485.26Q35.51 400.76, 120 436.27Q148.02 392.29, 192 420.31Q271.89 380.2, 312 460.09Q359.02 435.11, 384 482.13Q391.18 417.31, 456 424.49Q507.05 403.54, 528 454.59Q601.19 407.78, 648 480.97Q653.63 414.6, 720 420.23Q761.63 389.86, 792 431.48Q888.57 408.05, 912 504.62Q960.2 432.82, 1032 481.03Q1076.34 405.37, 1152 449.7Q1178.87 404.56, 1224 431.43Q1310.98 398.41, 1344 485.4Q1391.95 413.35, 1464 461.3z" fill="rgba(255, 144, 241, 1)"></path><path d="M1536 560L0 560 L0 495.02Q96.97 471.99, 120 568.96Q171.14 500.11, 240 551.25Q273.17 464.42, 360 497.59Q430.89 448.48, 480 519.36Q544.06 511.42, 552 575.48Q593.49 496.97, 672 538.45Q693.27 487.73, 744 509Q788.26 481.26, 816 525.53Q838.26 475.79, 888 498.05Q931.48 469.53, 960 513.02Q1040.99 474.01, 1080 555Q1122.71 525.71, 1152 568.42Q1178.01 474.43, 1272 500.44Q1318.82 475.25, 1344 522.07Q1400.06 506.13, 1416 562.19Q1466.98 493.17, 1536 544.15z" fill="rgba(255, 0, 160, 1)"></path></g><defs><mask id="SvgjsMask1549"><rect width="1440" height="560" fill="#ffffff"></rect></mask></defs></svg>