<svg xmlns="http://www.w3.org/2000/svg" version="1.1" xmlns:xlink="http://www.w3.org/1999/xlink" xmlns:svgjs="http://svgjs.dev/svgjs" width="1440" height="560" preserveAspectRatio="none" viewBox="0 0 1440 560"><g mask="url(&quot;#SvgjsMask1521&quot;)" fill="none"><path d="M1488 560L0 560 L0 343.03Q44.87 315.9, 72 360.77Q74.97 291.74, 144 294.71Q173.79 252.5, 216 282.29Q306.77 253.06, 336 343.83Q348.52 284.35, 408 296.87Q451.9 268.77, 480 312.67Q559.18 271.85, 600 351.03Q624.74 303.77, 672 328.51Q717.46 253.97, 792 299.42Q859.78 247.21, 912 314.99Q970.22 301.21, 984 359.42Q1012.83 268.25, 1104 297.09Q1181.89 254.99, 1224 332.88Q1258.22 247.1, 1344 281.32Q1387.69 253.01, 1416 296.7Q1468.97 277.67, 1488 330.65z" fill="rgba(0, 108, 5, 1)"></path><path d="M1512 560L0 560 L0 379.99Q53.6 361.59, 72 415.19Q82.02 353.21, 144 363.23Q212.7 311.94, 264 380.64Q349.61 346.25, 384 431.86Q407.24 335.1, 504 358.33Q583.74 318.06, 624 397.8Q677.55 331.36, 744 384.91Q798.39 367.31, 816 421.7Q887.32 373.02, 936 444.34Q963.66 352, 1056 379.65Q1080.28 331.92, 1128 356.2Q1224.6 332.8, 1248 429.4Q1281.78 343.17, 1368 376.95Q1395.82 332.76, 1440 360.58Q1495.66 344.24, 1512 399.9z" fill="rgba(0, 193, 5, 1)"></path><path d="M1560 560L0 560 L0 492.52Q39.22 459.74, 72 498.96Q117.89 424.85, 192 470.73Q238.9 397.63, 312 444.54Q371.35 431.89, 384 491.25Q402.61 437.86, 456 456.46Q540.51 420.97, 576 505.47Q602.64 412.12, 696 438.76Q740.09 410.85, 768 454.93Q822.95 437.88, 840 492.84Q888.09 468.93, 912 517.02Q949.23 434.25, 1032 471.48Q1057.94 425.42, 1104 451.36Q1195.58 422.94, 1224 514.51Q1250.98 469.49, 1296 496.47Q1301.35 429.82, 1368 435.17Q1397.39 392.56, 1440 421.96Q1526.05 388, 1560 474.05z" fill="rgba(112, 250, 116, 1)"></path><path d="M1464 560L0 560 L0 531.3Q53.03 512.33, 72 565.36Q96.08 517.44, 144 541.52Q191.63 469.14, 264 516.77Q318.88 499.65, 336 554.54Q386.72 485.25, 456 535.97Q512.31 520.28, 528 576.58Q528.18 504.76, 600 504.95Q653.21 438.16, 720 491.38Q812.05 463.43, 840 555.48Q908.14 503.62, 960 571.76Q961.89 501.65, 1032 503.54Q1062.51 462.05, 1104 492.55Q1183.1 451.65, 1224 530.75Q1295.58 482.33, 1344 553.9Q1383.59 473.49, 1464 513.08z" fill="rgba(0, 148, 34, 1)"></path></g><defs><mask id="SvgjsMask1521"><rect width="1440" height="560" fill="#ffffff"></rect></mask></defs></svg>