<svg xmlns="http://www.w3.org/2000/svg" version="1.1" xmlns:xlink="http://www.w3.org/1999/xlink" xmlns:svgjs="http://svgjs.dev/svgjs" width="1440" height="560" preserveAspectRatio="none" viewBox="0 0 1440 560"><g mask="url(&quot;#SvgjsMask1529&quot;)" fill="none"><path d="M1536 560L0 560 L0 310.27Q56.7 246.97, 120 303.66Q202.38 266.05, 240 348.43Q287.2 323.63, 312 370.83Q333.23 272.06, 432 293.29Q499.47 240.76, 552 308.23Q623.49 259.72, 672 331.21Q723.89 311.1, 744 362.99Q770.41 269.4, 864 295.82Q906.44 266.26, 936 308.71Q1017.19 269.9, 1056 351.1Q1126.35 301.45, 1176 371.79Q1211.23 287.02, 1296 322.26Q1366.16 272.42, 1416 342.58Q1492.85 299.43, 1536 376.28z" fill="rgba(142, 0, 0, 1)"></path><path d="M1488 560L0 560 L0 378.09Q88.53 346.62, 120 435.14Q141.62 384.75, 192 406.37Q238.47 332.84, 312 379.31Q354.76 350.07, 384 392.84Q407.41 344.25, 456 367.66Q512.25 351.9, 528 408.15Q582.42 390.57, 600 444.99Q602.88 375.87, 672 378.74Q719.62 306.36, 792 353.97Q834.42 324.39, 864 366.82Q918.96 349.78, 936 404.74Q981.28 378.02, 1008 423.31Q1038.52 333.83, 1128 364.35Q1204.72 321.07, 1248 397.79Q1297.86 327.65, 1368 377.51Q1454.36 343.87, 1488 430.23z" fill="rgba(255, 45, 45, 1)"></path><path d="M1512 560L0 560 L0 465.95Q43.06 437.01, 72 480.08Q115.92 404, 192 447.91Q286.92 422.83, 312 517.75Q337.76 471.51, 384 497.28Q411.84 453.12, 456 480.95Q508.21 461.16, 528 513.37Q537.31 450.68, 600 459.99Q643.19 383.18, 720 426.37Q762.36 396.73, 792 439.09Q850.77 425.86, 864 484.63Q885.5 434.13, 936 455.62Q986.94 386.56, 1056 437.5Q1110.72 420.23, 1128 474.95Q1193.84 420.78, 1248 486.62Q1299.53 466.15, 1320 517.68Q1350.7 476.38, 1392 507.09Q1410.29 405.38, 1512 423.67z" fill="rgba(149, 58, 58, 1)"></path><path d="M1488 560L0 560 L0 547.4Q26.03 501.43, 72 527.46Q153.69 489.15, 192 570.85Q236.19 543.04, 264 587.22Q280.32 531.54, 336 547.86Q371.56 463.42, 456 498.99Q534.89 457.88, 576 536.77Q605.58 494.35, 648 523.93Q678.4 482.33, 720 512.73Q787.18 507.91, 792 575.1Q816.03 527.13, 864 551.17Q912.28 479.45, 984 527.74Q1041.24 512.99, 1056 570.23Q1099.78 494.01, 1176 537.79Q1201.66 491.45, 1248 517.11Q1340.81 489.92, 1368 582.73Q1402.7 497.43, 1488 532.14z" fill="rgba(255, 126, 126, 1)"></path></g><defs><mask id="SvgjsMask1529"><rect width="1440" height="560" fill="#ffffff"></rect></mask></defs></svg>